:SAMPLES-PER-SECOND 30
:FULLY-SPECIFIED
:DEGREES
455
root  -2.61178 40.678 -0.696277 173.611 -69.3259 -174.92
RightUpLeg  1.08868 0.615942 2.38202
RightLeg  3.88074 -2.34901 0.432768
RightFoot  -2.49461 -0.043133 0.317922
RightToes  -3.13006e-008 1.75238e-005 3.56266e-009
Spine  -5.40449 -8.25733 -4.1566
Spine1  16.0813 -9.17725 2.1739
HEad  -28.0088 37.1839 -25.0412
LeftShoulder1  4.83782 -9.54252 -31.0846
LeftArm  -18.3071 12.905 -50.6773
LeftForeArm  72.8323 -78.9727 -93.3357
LeftHand  -0.0865124 -0.613961 1.7938
RightShoulder  2.42717 4.44443 24.4263
RightArm  -23.8782 4.85632 29.541
RightForeArm  83.674 78.2931 107.804
RightHand  -0.407695 3.26207 -5.67943
LeftUpLeg  4.67785 7.01589 7.6092
LeftLeg  6.79582 25.6076 0.622195
LeftFoot  -5.87655 0.38845 -7.39894
LeftToes  4.76866e-008 1.46233e-008 1.30548e-009
456
root  -2.60106 40.6429 -0.847764 171.989 -70.1153 -173.537
RightUpLeg  1.68853 0.774673 3.04075
RightLeg  3.62586 -3.38384 0.493785
RightFoot  -2.58425 -0.0264069 0.0782814
RightToes  -3.13006e-008 1.75238e-005 3.56266e-009
Spine  -5.6345 -8.14891 -4.33538
Spine1  17.1631 -9.30508 2.92292
HEad  -28.9116 36.0929 -25.4609
LeftShoulder1  5.06713 -9.87329 -31.8878
LeftArm  -9.17193 13.6295 -49.9627
LeftForeArm  85.4934 -78.9906 -101.305
LeftHand  0.055747 -2.39059 -0.611755
RightShoulder  2.84508 5.29993 26.3036
RightArm  -16.4769 0.173847 29.6462
RightForeArm  92.3681 77.5529 116.587
RightHand  -0.118533 2.84157 -1.9088
LeftUpLeg  4.39891 8.11006 8.52606
LeftLeg  7.98998 23.4799 1.07741
LeftFoot  -6.39437 0.372153 -7.71839
LeftToes  4.76866e-008 1.46233e-008 1.30548e-009
457
root  -2.54356 40.6064 -0.934547 171.061 -70.5919 -172.688
RightUpLeg  1.67146 0.857727 3.42793
RightLeg  3.91046 -4.02879 0.533743
RightFoot  -2.78766 -0.0195609 -0.0113683
RightToes  -3.13006e-008 1.75238e-005 3.56266e-009
Spine  -5.34041 -7.61457 -4.76739
Spine1  17.3825 -9.20335 4.41249
HEad  -29.6955 35.0674 -26.4159
LeftShoulder1  5.30157 -10.0958 -32.9883
LeftArm  -2.99132 11.0149 -49.846
LeftForeArm  95.0263 -78.9845 -106.064
LeftHand  0.273833 -4.19698 -3.05678
RightShoulder  3.16478 5.93962 27.5431
RightArm  -13.7373 -2.89919 30.9969
RightForeArm  103.517 76.9633 123.097
RightHand  0.0753999 2.96367 0.806878
LeftUpLeg  3.96066 9.1055 9.1081
LeftLeg  8.93298 21.8343 1.36484
LeftFoot  -6.77456 0.350545 -7.76531
LeftToes  4.76866e-008 1.46233e-008 1.30548e-009
458
root  -2.49336 40.5716 -1.0096 169.831 -71.3229 -171.564
RightUpLeg  1.81349 0.828002 3.78041
RightLeg  3.97846 -4.83633 0.681729
RightFoot  -2.91396 -0.00662057 -0.198854
RightToes  -3.13006e-008 1.75238e-005 3.56266e-009
Spine  -5.30432 -7.26129 -4.68133
Spine1  17.8216 -9.07641 5.1231
HEad  -30.1282 34.6601 -27.3308
LeftShoulder1  5.57752 -10.4761 -33.901
LeftArm  -0.974003 7.34398 -50.591
LeftForeArm  103.081 -78.7162 -111.87
LeftHand  0.364594 -5.16421 -3.70998
RightShoulder  3.34849 6.25647 28.3581
RightArm  -14.5543 -4.51556 33.7709
RightForeArm  109.541 76.1978 128.151
RightHand  0.147074 3.03357 1.81539
LeftUpLeg  3.49743 10.265 9.73401
LeftLeg  9.8615 19.7516 1.60324
LeftFoot  -7.15604 0.3314 -7.89179
LeftToes  4.76866e-008 1.46233e-008 1.30548e-009
459
root  -2.42846 40.5461 -1.05846 169.231 -72.268 -170.836
RightUpLeg  1.5872 0.667475 3.85514
RightLeg  4.14703 -5.67177 0.848445
RightFoot  -3.08752 -0.000100254 -0.289666
RightToes  -3.13006e-008 1.75238e-005 3.56266e-009
Spine  -5.20045 -7.26806 -4.08307
Spine1  17.483 -8.98636 4.8335
HEad  -28.9834 34.5287 -26.777
LeftShoulder1  5.6131 -10.5032 -34.0724
LeftArm  -1.1465 3.43379 -51.532
LeftForeArm  105.332 -78.5297 -114.143
LeftHand  0.262915 -5.12863 -2.59928
RightShoulder  3.48136 6.57418 28.598
RightArm  -17.0374 -5.63407 37.4492
RightForeArm  113.182 75.5595 131.449
RightHand  0.25242 3.1737 3.23459
LeftUpLeg  2.71925 11.1628 9.99631
LeftLeg  10.6152 17.858 1.75903
LeftFoot  -7.40017 0.323385 -8.09774
LeftToes  4.76866e-008 1.46233e-008 1.30548e-009
460
root  -2.37389 40.5208 -1.09518 168.221 -73.605 -169.55
RightUpLeg  1.33471 0.695263 4.07518
RightLeg  4.12195 -7.08908 0.86284
RightFoot  -3.19075 0.000435151 -0.290349
RightToes  -3.13006e-008 1.75238e-005 3.56266e-009
Spine  -5.15563 -7.28978 -3.57428
Spine1  16.9716 -8.94818 4.73199
HEad  -27.3274 33.6246 -25.6211
LeftShoulder1  5.46773 -10.2966 -33.6254
LeftArm  -2.3275 -1.10328 -52.5382
LeftForeArm  102.046 -78.8397 -110.415
LeftHand  0.142694 -5.14543 -1.26195
RightShoulder  3.52328 6.66516 28.7028
RightArm  -20.8021 -6.55924 40.7702
RightForeArm  116.881 74.6573 135.252
RightHand  -0.0114196 3.5646 -0.413262
LeftUpLeg  1.67585 12.0855 10.2276
LeftLeg  11.3535 15.5557 1.84356
LeftFoot  -7.5256 0.301929 -7.70543
LeftToes  4.76866e-008 1.46233e-008 1.30548e-009
461
root  -2.32643 40.5159 -1.14325 167.837 -75.1837 -169.062
RightUpLeg  1.24863 0.648527 4.04252
RightLeg  4.09987 -8.61147 0.708274
RightFoot  -3.32083 -0.00472422 -0.205218
RightToes  -3.13006e-008 1.75238e-005 3.56266e-009
Spine  -4.73721 -7.14868 -3.63019
Spine1  15.8807 -8.7732 4.93571
HEad  -25.532 32.6654 -24.0317
LeftShoulder1  5.41253 -10.2275 -33.4221
LeftArm  -3.64505 -5.24714 -52.9083
LeftForeArm  94.5149 -79.2624 -102.862
LeftHand  0.076103 -4.84438 -0.559218
RightShoulder  3.45848 6.56475 28.3981
RightArm  -24.6909 -7.91106 43.3149
RightForeArm  120.15 73.8154 138.323
RightHand  -0.107802 4.05163 -1.61608
LeftUpLeg  1.04001 12.3004 10.1465
LeftLeg  11.478 13.8012 1.60956
LeftFoot  -7.41212 0.305324 -7.59855
LeftToes  4.76866e-008 1.46233e-008 1.30548e-009
462
root  -2.28197 40.5131 -1.18111 167.467 -77.1207 -168.59
RightUpLeg  1.10501 0.357532 3.79078
RightLeg  4.21396 -10.2112 0.676523
RightFoot  -3.52173 -0.00804515 -0.151071
RightToes  -3.13006e-008 1.75238e-005 3.56266e-009
Spine  -4.69642 -7.17315 -3.26264
Spine1  15.4061 -8.52801 4.19441
HEad  -24.4846 31.6785 -22.3351
LeftShoulder1  5.21195 -9.99741 -32.6124
LeftArm  -4.93759 -8.79538 -52.971
LeftForeArm  88.9081 -79.512 -96.2841
LeftHand  -0.0449806 -4.33646 0.816735
RightShoulder  3.39775 6.3721 28.4535
RightArm  -27.5338 -8.94094 44.5783
RightForeArm  121.402 73.632 139.029
RightHand  -0.212217 4.23165 -2.80204
LeftUpLeg  0.386412 11.7768 9.77216
LeftLeg  11.4198 12.5253 1.48161
LeftFoot  -7.17363 0.317681 -7.54639
LeftToes  4.76866e-008 1.46233e-008 1.30548e-009
463
root  -2.27172 40.522 -1.23286 166.495 -79.4996 -167.537
RightUpLeg  1.22706 0.0191779 3.51966
RightLeg  4.01365 -12.2115 0.700361
RightFoot  -3.70664 -0.0134352 -0.0670381
RightToes  -3.13006e-008 1.75238e-005 3.56266e-009
Spine  -5.0035 -7.36379 -3.5362
Spine1  15.5936 -8.6785 4.15391
HEad  -23.3632 29.5519 -21.1767
LeftShoulder1  5.03641 -9.71543 -32.1082
LeftArm  -7.14289 -11.0421 -52.9341
LeftForeArm  92.9842 -79.6708 -96.6204
LeftHand  -0.138229 -4.44147 1.91153
RightShoulder  3.20548 5.95153 27.9376
RightArm  -29.2269 -9.89313 45.3618
RightForeArm  121.308 74.2405 137.316
RightHand  -0.539413 5.09786 -6.23009
LeftUpLeg  -0.113102 10.9609 9.43544
LeftLeg  11.0221 11.0805 1.11251
LeftFoot  -6.81756 0.327961 -7.26185
LeftToes  4.76866e-008 1.46233e-008 1.30548e-009
464
root  -2.26985 40.5278 -1.29213 164.013 -82.1536 -164.974
RightUpLeg  1.47594 -0.262227 3.35554
RightLeg  3.64085 -14.5783 0.744964
RightFoot  -3.86289 -0.0218467 0.061853
RightToes  -3.13006e-008 1.75238e-005 3.56266e-009
Spine  -4.68072 -7.61357 -3.93696
Spine1  14.9752 -8.96622 4.46283
HEad  -22.3924 27.0887 -20.5828
LeftShoulder1  4.89146 -9.42418 -31.8447
LeftArm  -10.0762 -11.1475 -52.1729
LeftForeArm  106.466 -79.4393 -106.909
LeftHand  -0.261511 -4.95282 3.24764
RightShoulder  3.03985 5.56529 27.5491
RightArm  -30.1174 -11.5873 45.3547
RightForeArm  119.411 75.1824 134.067
RightHand  -0.77549 5.53107 -8.53366
LeftUpLeg  -0.758205 9.94056 9.09007
LeftLeg  10.8165 9.45568 0.931702
LeftFoot  -6.45275 0.347427 -7.22722
LeftToes  4.76866e-008 1.46233e-008 1.30548e-009
